<svg width="24" height="24" xmlns="http://www.w3.org/2000/svg"><path d="M11.78 19.417c.594 0 1.083.449 1.146 1.026l.006.125v1.842a1.152 1.152 0 0 1-2.296.125l-.007-.125v-1.842c0-.636.516-1.151 1.152-1.151zM6.382 17.18a1.15 1.15 0 0 1 .09 1.527l-.09.1L5.08 20.11a1.152 1.152 0 0 1-1.718-1.528l.09-.1 1.302-1.302a1.15 1.15 0 0 1 1.628 0zm12.427 0 1.303 1.303a1.15 1.15 0 1 1-1.628 1.627l-1.304-1.3a1.15 1.15 0 1 1 1.628-1.628zM11.781 5.879a5.908 5.908 0 0 1 5.901 5.902 5.908 5.908 0 0 1-5.901 5.902 5.908 5.908 0 0 1-5.902-5.902 5.908 5.908 0 0 1 5.902-5.902zm10.63 4.75a1.151 1.151 0 1 1 0 2.303h-1.843a1.151 1.151 0 1 1 0-2.303h1.842zm-19.418 0a1.151 1.151 0 0 1 .126 2.296l-.125.007H1.15a1.151 1.151 0 0 1-.125-2.296l.125-.007h1.842zm1.985-7.268.1.09 1.303 1.302a1.151 1.151 0 0 1-1.528 1.718l-.1-.09L3.45 5.08a1.15 1.15 0 0 1 1.528-1.72zm15.133.09a1.15 1.15 0 0 1 0 1.628L18.808 6.38a1.151 1.151 0 1 1-1.628-1.628l1.303-1.303a1.152 1.152 0 0 1 1.628 0zM11.781 0a1.15 1.15 0 0 1 1.151 1.151v1.843a1.152 1.152 0 0 1-2.303 0V1.15A1.152 1.152 0 0 1 11.781 0z" fill="#FFF"/></svg>